<svg xmlns="http://www.w3.org/2000/svg" width="26" height="30" fill="none" viewBox="0 0 26 30"><path fill="#F2B851" d="M14.0649 1.67901H1.25246V4.55798H14.0649V1.67901Z"/><path fill="#25B6D2" d="M16.8979 8.36599V4.22424H3.04397C2.39899 4.22424 1.87494 3.69738 1.87494 3.04959C1.87494 2.4018 2.39993 1.87494 3.04397 1.87494H16.2707V0H3.04397C1.36589 0 0 1.36777 0 3.04959V17.7951C0 19.1235 0.374051 20.1425 1.11184 20.824C1.91057 21.5628 2.85554 21.634 3.16771 21.634C3.22584 21.634 3.2624 21.6312 3.27084 21.6303H8.65285V19.7553"/><path fill="#F2B851" d="M22.8508 9.93156H10.0384V12.8105H22.8508V9.93156Z"/><path fill="#25B6D2" d="M14.5833 5.78419C14.4952 5.70263 12.4524 3.76582 14.4108 0.452798L16.0242 1.40714C14.8823 3.34021 15.7626 4.31236 15.8658 4.41736L14.5833 5.78419Z"/><path fill="#6C4FE0" d="M24.3733 12.5893C24.1577 12.2546 23.8727 11.4812 24.4445 10.24H24.9245V8.36505H11.6978C10.0197 8.36505 8.65379 9.73282 8.65379 11.4146V26.1611C8.65379 27.4895 9.02784 28.5085 9.76657 29.19C10.5644 29.9288 11.5093 30 11.8215 30C11.8796 30 11.9162 29.9972 11.9246 29.9963H25.5517V12.5893H24.3733ZM11.6978 12.5893C11.0528 12.5893 10.5287 12.0624 10.5287 11.4146C10.5287 10.7669 11.0537 10.24 11.6978 10.24H22.4327C22.1468 11.185 22.1871 11.9734 22.3559 12.5893H11.6978Z"/></svg>