<svg xmlns="http://www.w3.org/2000/svg" width="210" height="40" fill="none"><path fill="#fff" d="M54.906 23.906H44.22L42.53 27h-1.968l7.874-13.5h2.25L58.563 27h-1.97l-1.687-3.094Zm-.843-1.406-4.5-7.875-4.5 7.875h9Zm6.75-9H62.5V27h-1.688V13.5ZM71.219 18c-.656 0-1.225.02-1.705.061a5.71 5.71 0 0 0-1.213.22 2.217 2.217 0 0 0-.818.44 1.928 1.928 0 0 0-.483.72 4.167 4.167 0 0 0-.228 1.064c-.036.41-.053.893-.053 1.45 0 .55.017 1.031.053 1.442.04.404.117.752.228 1.045.117.288.278.525.483.712.211.188.484.334.818.44a5.71 5.71 0 0 0 1.213.22c.48.04 1.049.061 1.705.061.562 0 1.063-.012 1.503-.035.44-.03.826-.088 1.16-.176.334-.094.615-.226.844-.395a1.97 1.97 0 0 0 .57-.695c.147-.293.253-.653.317-1.08.07-.434.106-.956.106-1.565 0-.61-.035-1.131-.106-1.565-.064-.433-.17-.794-.316-1.08a1.87 1.87 0 0 0-.571-.695 2.438 2.438 0 0 0-.844-.387 5.807 5.807 0 0 0-1.16-.167c-.44-.023-.94-.035-1.503-.035Zm6.187 7.594c0 .984-.111 1.801-.334 2.452-.222.65-.58 1.175-1.072 1.573-.492.404-1.13.686-1.916.844-.785.158-1.74.237-2.865.237-1.055 0-1.943-.047-2.663-.14-.715-.094-1.292-.244-1.732-.449-.44-.199-.756-.46-.949-.782-.188-.316-.281-.703-.281-1.16h1.687c0 .229.059.416.176.562.123.147.334.261.633.343.299.082.7.138 1.204.167.51.035 1.151.053 1.925.053.844 0 1.553-.032 2.127-.097.574-.058 1.037-.202 1.388-.43.352-.229.604-.575.756-1.037.153-.463.229-1.082.229-1.855a2.02 2.02 0 0 1-.396.457c-.175.164-.436.316-.782.457-.34.14-.78.258-1.318.352-.54.093-1.207.14-2.004.14-1.125 0-2.08-.085-2.865-.255-.786-.164-1.424-.448-1.916-.852-.493-.404-.85-.95-1.073-1.635-.222-.686-.334-1.547-.334-2.584 0-1.055.112-1.928.334-2.62.223-.69.58-1.238 1.073-1.643.492-.404 1.13-.688 1.915-.852.786-.164 1.74-.246 2.866-.246.797 0 1.465.04 2.004.123.539.082.978.184 1.318.307.346.123.606.258.782.405.182.14.314.27.396.386v-.94h1.687v8.719Zm1.969-3.727c0-1.037.111-1.895.334-2.575.223-.68.58-1.219 1.072-1.617.492-.399 1.131-.677 1.916-.835.785-.164 1.74-.246 2.865-.246 1.126 0 2.08.082 2.866.246.785.158 1.424.436 1.916.835.492.398.85.937 1.072 1.617.223.68.334 1.538.334 2.575 0 1.037-.111 1.899-.334 2.584-.223.686-.58 1.23-1.072 1.635-.492.404-1.131.691-1.916.861-.785.164-1.74.246-2.865.246-1.126 0-2.08-.082-2.866-.246-.785-.17-1.424-.457-1.916-.861-.492-.404-.85-.95-1.072-1.635-.223-.685-.334-1.547-.334-2.584Zm1.688 0c0 .563.02 1.052.061 1.468.041.416.117.773.229 1.072.117.3.278.542.483.73.205.187.475.337.808.448.334.111.739.188 1.213.229a20.4 20.4 0 0 0 1.706.061c.562 0 1.063-.012 1.502-.035a5.6 5.6 0 0 0 1.16-.185c.335-.094.619-.225.853-.395.234-.176.422-.413.563-.712.146-.299.252-.665.316-1.099.07-.44.106-.967.106-1.582 0-.603-.036-1.116-.106-1.538-.064-.428-.17-.785-.316-1.072a1.738 1.738 0 0 0-.563-.677 2.42 2.42 0 0 0-.852-.378 5.683 5.683 0 0 0-1.16-.167c-.44-.023-.941-.035-1.504-.035-.562 0-1.066.012-1.511.035-.44.024-.826.08-1.16.167-.329.082-.61.208-.844.378a1.81 1.81 0 0 0-.571.677c-.141.287-.246.644-.317 1.072-.064.422-.097.935-.097 1.538Zm25.453-8.367h1.968l5.485 12.094 5.343-12.094h1.969L115.094 27h-2.25L107.5 15.187 102.156 27h-2.25l-6.75-13.5h1.969l5.906 12.094 5.485-12.094Zm17.015 3.375h1.688V27h-1.688V16.875Zm1.688-1.688h-1.688V13.5h1.688v1.688Zm3.375 1.688h10.125v1.406l-8.455 7.462h8.455V27h-10.688v-1.406l8.578-7.48h-8.015v-1.239Zm22.456 8.736c-.018.07-.15.246-.396.528-.175.21-.41.398-.703.562-.293.158-.685.281-1.178.37-.486.093-1.127.14-1.924.14-1.061 0-1.966-.056-2.716-.167-.75-.105-1.362-.27-1.837-.492-.475-.229-.823-.519-1.046-.87-.217-.352-.325-.77-.325-1.257 0-.51.058-.94.176-1.292.123-.358.298-.656.527-.897.234-.24.516-.427.844-.562.328-.135.7-.238 1.116-.308.422-.07.882-.114 1.38-.132a45.153 45.153 0 0 1 1.591-.026c.802 0 1.473.035 2.012.106.539.064.979.149 1.319.254.345.1.606.208.782.326.176.117.302.225.378.325 0-.657-.029-1.216-.088-1.679-.053-.463-.144-.85-.273-1.16a1.952 1.952 0 0 0-.483-.738 1.904 1.904 0 0 0-.738-.422 4.068 4.068 0 0 0-1.011-.176c-.387-.03-.829-.044-1.327-.044-.774 0-1.415.02-1.925.061-.51.036-.914.109-1.213.22-.299.112-.51.267-.633.466-.123.193-.184.448-.184.765h-1.688c0-.534.094-.985.282-1.354.193-.369.509-.668.949-.896.445-.235 1.028-.405 1.749-.51.721-.105 1.608-.158 2.663-.158 1.031 0 1.904.085 2.619.255.715.17 1.292.468 1.731.896.446.428.765 1.005.958 1.732.2.72.299 1.634.299 2.742V27h-1.687v-1.389Zm-3.92.264c.744 0 1.365-.035 1.863-.105.504-.07.908-.176 1.213-.317.305-.14.522-.316.65-.527.129-.211.194-.457.194-.738 0-.282-.076-.52-.229-.712-.146-.2-.395-.36-.747-.484-.345-.123-.805-.21-1.38-.264a21.495 21.495 0 0 0-2.127-.087c-.843 0-1.526.014-2.047.044-.516.029-.915.096-1.196.202-.281.105-.471.26-.571.465-.094.206-.141.484-.141.835 0 .352.05.64.15.862.105.217.316.387.633.51.316.123.77.208 1.362.255.597.04 1.389.061 2.373.061Zm16.585-5.704c0-.422-.032-.77-.097-1.046a1.058 1.058 0 0 0-.43-.668c-.229-.17-.569-.287-1.02-.352-.445-.07-1.055-.105-1.828-.105-.756 0-1.371.067-1.846.202-.474.13-.847.314-1.116.554a1.84 1.84 0 0 0-.554.861c-.094.334-.14.706-.14 1.116V27h-1.688V16.875h1.688v1.608a2.17 2.17 0 0 1 .325-.597c.158-.223.398-.428.72-.616.323-.193.739-.354 1.249-.483.515-.129 1.157-.193 1.924-.193.879 0 1.594.079 2.145.237.551.152.978.38 1.283.686.311.298.519.67.624 1.116.111.445.167.958.167 1.538h-1.406Zm8.437 7.022c-1.125 0-2.08-.082-2.865-.246-.785-.164-1.424-.445-1.916-.843-.492-.399-.85-.935-1.072-1.609-.223-.674-.334-1.52-.334-2.54 0-1.055.111-1.928.334-2.62.222-.69.58-1.238 1.072-1.643.492-.404 1.131-.688 1.916-.852.785-.164 1.74-.246 2.865-.246.797 0 1.465.04 2.004.123.539.082.979.184 1.319.307.345.123.606.258.782.405.181.14.313.272.395.395V13.5h1.688V27h-1.688v-1.503l-.422.501c-.246.24-.518.434-.817.58-.299.147-.718.287-1.257.422-.539.129-1.207.193-2.004.193Zm0-1.318c.563 0 1.064-.012 1.503-.035.44-.03.826-.088 1.16-.176.334-.088.616-.217.844-.387.235-.175.425-.407.571-.694.147-.287.252-.642.317-1.063.07-.428.105-.94.105-1.539 0-.62-.035-1.148-.105-1.582-.065-.439-.17-.805-.317-1.098a1.845 1.845 0 0 0-.571-.703 2.435 2.435 0 0 0-.844-.387 5.37 5.37 0 0 0-1.16-.176c-.439-.023-.94-.035-1.503-.035-.656 0-1.224.02-1.705.061a5.718 5.718 0 0 0-1.213.22 2.216 2.216 0 0 0-.817.44 1.926 1.926 0 0 0-.483.72 4.136 4.136 0 0 0-.229 1.064c-.035.41-.053.893-.053 1.45 0 .55.018 1.031.053 1.442.041.404.117.752.229 1.045.117.288.278.525.483.712.211.188.483.334.817.44.334.105.739.178 1.213.22a20.41 20.41 0 0 0 1.705.061Zm17.157-5.704c0-.422-.033-.77-.097-1.046a1.06 1.06 0 0 0-.431-.668c-.228-.17-.568-.287-1.019-.352-.446-.07-1.055-.105-1.828-.105-.756 0-1.372.067-1.846.202-.475.13-.847.314-1.116.554a1.84 1.84 0 0 0-.554.861 4.116 4.116 0 0 0-.141 1.116V27h-1.687V16.875h1.687v1.608c.059-.181.167-.38.326-.597.158-.223.398-.428.72-.616.323-.193.739-.354 1.248-.483.516-.129 1.158-.193 1.925-.193.879 0 1.594.079 2.145.237.55.152.978.38 1.283.686.31.298.518.67.624 1.116.111.445.167.958.167 1.538h-1.406ZM196.621 27l-5.344-10.125h1.969l4.5 9 4.219-9h1.969L198.871 27l-.281.563c-.141.28-.281.544-.422.79-.135.252-.29.481-.466.686-.176.211-.384.398-.624.563a3.37 3.37 0 0 1-.888.413 6.23 6.23 0 0 1-1.239.263c-.48.065-1.049.097-1.705.097v-1.406c.563 0 1.037-.024 1.424-.07.387-.042.709-.106.967-.194.263-.082.474-.182.633-.299.158-.117.29-.249.395-.395.106-.147.193-.305.264-.475a13.5 13.5 0 0 1 .255-.536h-.563Z"/><path fill="#F2B851" d="M14.065 6.679H1.252v2.879h12.813V6.679Z"/><path fill="#25B6D2" d="M16.898 13.366V9.224H3.044a1.173 1.173 0 0 1-1.17-1.174c0-.648.526-1.175 1.17-1.175h13.227V5H3.044A3.05 3.05 0 0 0 0 8.05v14.745c0 1.328.374 2.347 1.112 3.029.799.739 1.744.81 2.056.81.058 0 .094-.003.103-.004h5.382v-1.875"/><path fill="#F2B851" d="M22.85 14.932H10.039v2.879h12.813v-2.88Z"/><path fill="#25B6D2" d="M14.583 10.784c-.088-.081-2.13-2.018-.172-5.331l1.613.954c-1.142 1.933-.261 2.905-.158 3.01l-1.283 1.367Z"/><path fill="#6C4FE0" d="M24.373 17.59c-.215-.335-.5-1.109.072-2.35h.48v-1.875H11.697a3.05 3.05 0 0 0-3.044 3.05V31.16c0 1.328.374 2.347 1.113 3.029.797.739 1.742.81 2.055.81.058 0 .094-.003.103-.004h13.627V17.59h-1.179Zm-12.675 0c-.645 0-1.17-.528-1.17-1.175 0-.648.526-1.175 1.17-1.175h10.735c-.286.945-.246 1.733-.077 2.35H11.698Z"/></svg>